<?xml version="1.0" encoding="UTF-8" standalone="no"?>
<svg
   viewBox="0 0 512 512"
   style="height: 512px; width: 512px;"
   version="1.1"
   id="svg1"
   sodipodi:docname="bloody-stash.svg"
   inkscape:version="1.3.2 (091e20e, 2023-11-25, custom)"
   xmlns:inkscape="http://www.inkscape.org/namespaces/inkscape"
   xmlns:sodipodi="http://sodipodi.sourceforge.net/DTD/sodipodi-0.dtd"
   xmlns="http://www.w3.org/2000/svg"
   xmlns:svg="http://www.w3.org/2000/svg">
  <defs
     id="defs1" />
  <sodipodi:namedview
     id="namedview1"
     pagecolor="#505050"
     bordercolor="#eeeeee"
     borderopacity="1"
     inkscape:showpageshadow="0"
     inkscape:pageopacity="0"
     inkscape:pagecheckerboard="0"
     inkscape:deskcolor="#505050"
     showgrid="false"
     inkscape:zoom="1.5878906"
     inkscape:cx="256"
     inkscape:cy="256"
     inkscape:window-width="1920"
     inkscape:window-height="1009"
     inkscape:window-x="1912"
     inkscape:window-y="-8"
     inkscape:window-maximized="1"
     inkscape:current-layer="g1" />
  <g
     class=""
     transform="translate(0,0)"
     style=""
     id="g1">
    <path
       d="m 104.625,40.093 c 5.11,5.177 10.18,10.36 15.22,15.593 -4.225,1.173 -7.38,4.29 -8.345,9 -1.812,8.844 4.727,19.92 14.625,24.72 3.642,1.766 7.237,2.42 10.406,2.124 -2.535,4.11 -4,8.974 -4,14.157 0,14.89 12.05,26.938 26.94,26.938 8.68,0 16.41,-4.097 21.343,-10.47 88.686,101.2 165.598,208.4 235.156,306.72 -7.4,6.047 -12.126,15.23 -12.126,25.53 0,18.213 14.756,32.97 32.97,32.97 6.274,0 12.13,-1.77 17.123,-4.813 3.086,4.354 6.193,8.76 9.25,13.063 h 31.532 V 381.28 C 453.362,312.057 339.949,187.94 310.186,167.97 c 24.14,33.4 45.1,64.336 64.813,94.03 C 287.509,166.25 191.556,82.412 104.624,40.094 Z m -28.22,15.25 c -1.868,0.086 -3.736,0.548 -5.53,1.406 -7.176,3.433 -10.214,12.042 -6.78,19.22 3.432,7.175 12.04,10.213 19.218,6.78 7.176,-3.433 10.214,-12.042 6.78,-19.22 -2.574,-5.38 -8.08,-8.445 -13.687,-8.186 z m 204.626,55.625 c -1.983,0.123 -3.845,0.72 -5.436,1.78 -6.366,4.236 -6.168,14.688 0.437,23.344 6.607,8.655 17.104,12.236 23.47,8 6.366,-4.236 6.168,-14.688 -0.438,-23.344 -4.954,-6.492 -12.078,-10.155 -18.03,-9.78 z"
       fill="#ffffff"
       fill-opacity="1"
       id="path1"
       sodipodi:nodetypes="ccsccssccssccccccccccccccccccsccc" />
  </g>
</svg>
